<?xml version="1.0" standalone="no"?>
<!DOCTYPE svg PUBLIC "-//W3C//DTD SVG 20010904//EN"
 "http://www.w3.org/TR/2001/REC-SVG-20010904/DTD/svg10.dtd">
<svg version="1.0" xmlns="http://www.w3.org/2000/svg"
 width="497.000000pt" height="502.000000pt" viewBox="0 0 497.000000 502.000000"
 preserveAspectRatio="xMidYMid meet">

<g transform="translate(0.000000,502.000000) scale(0.100000,-0.100000)"
fill="#000000" stroke="none">
<path d="M2465 4570 c-11 -16 -29 -33 -40 -38 -108 -49 -140 -71 -208 -138
-71 -70 -77 -74 -120 -74 -67 0 -166 -34 -225 -78 -43 -33 -62 -40 -116 -45
-112 -11 -263 -77 -376 -167 l-25 -20 82 0 c118 0 123 -7 212 -288 28 -86 80
-260 116 -387 72 -249 102 -352 194 -663 l59 -203 -44 -71 c-48 -78 -87 -187
-105 -290 -13 -77 -25 -84 -86 -47 -65 41 -71 70 -43 229 62 351 -256 517
-575 300 -151 -102 -324 -165 -438 -157 -86 6 -181 51 -232 110 -44 50 -87
138 -112 227 -27 96 -25 436 4 568 l20 94 -24 9 c-13 5 -26 9 -29 9 -6 0 -85
-168 -129 -275 -82 -198 -137 -410 -151 -576 -11 -141 24 -292 89 -388 27 -40
29 -48 23 -102 -8 -84 8 -155 52 -219 35 -53 37 -57 33 -132 -2 -65 1 -85 22
-130 13 -29 36 -66 51 -81 15 -16 43 -61 62 -100 51 -101 115 -188 168 -228
29 -21 58 -56 78 -92 45 -83 145 -187 216 -225 122 -65 260 -61 496 14 383
123 392 126 526 131 97 4 139 2 190 -11 90 -23 254 -105 239 -120 -2 -2 -42 7
-89 21 -172 50 -369 42 -605 -27 -163 -47 -275 -71 -359 -78 l-80 -7 -28 -170
c-15 -93 -30 -212 -34 -262 -6 -80 -5 -93 8 -93 9 0 19 -7 22 -16 9 -24 61
-18 626 83 135 24 376 14 508 -20 56 -15 124 -36 150 -46 l49 -19 82 29 c157
55 266 71 451 66 139 -4 199 -11 379 -45 117 -23 259 -46 314 -52 88 -10 101
-9 109 4 5 9 16 16 25 16 13 0 15 10 9 67 -5 57 -43 320 -61 429 l-5 31 -83 6
c-75 5 -153 23 -452 102 -179 47 -385 45 -539 -6 -32 -11 -60 -18 -63 -16 -8
8 89 66 165 98 68 29 90 33 193 37 149 6 212 -7 510 -103 146 -47 262 -78 313
-85 205 -25 344 44 467 233 32 48 83 110 114 139 64 59 96 102 152 210 23 43
57 96 76 118 44 52 63 116 60 208 -2 68 0 77 27 110 46 57 62 115 58 207 -3
77 -1 82 34 140 60 98 73 158 73 325 -1 187 -27 315 -115 550 -47 129 -152
350 -165 350 -6 0 -18 -6 -27 -12 -14 -12 -14 -23 4 -118 29 -159 30 -425 0
-542 -28 -112 -61 -178 -123 -244 -70 -73 -131 -99 -239 -99 -121 0 -258 50
-410 150 -91 59 -156 87 -233 98 -212 30 -357 -96 -357 -311 0 -26 7 -86 16
-134 15 -84 15 -89 -3 -120 -23 -40 -80 -80 -107 -76 -16 2 -22 19 -38 95 -23
117 -47 181 -99 268 l-42 68 16 51 c19 63 184 624 282 961 107 369 154 493
194 515 11 5 55 10 98 10 l78 0 -50 36 c-126 90 -242 139 -354 150 -51 5 -74
13 -103 36 -62 49 -146 82 -216 84 l-63 3 -82 77 c-52 49 -102 86 -137 101
-81 36 -83 37 -105 71 -11 17 -22 31 -25 32 -3 0 -14 -13 -25 -30z m100 -110
c22 -7 54 -22 70 -33 57 -40 155 -140 155 -159 0 -17 -39 -187 -100 -433 -69
-278 -110 -459 -110 -481 0 -21 4 -25 22 -22 18 2 26 15 39 63 16 55 108 439
165 685 45 193 39 180 88 180 55 0 114 -21 172 -61 39 -26 45 -35 41 -58 -4
-22 -40 -147 -216 -731 -123 -408 -116 -379 -97 -398 30 -30 23 -50 186 498
157 530 186 623 199 628 25 10 151 -17 208 -44 l55 -27 -31 -24 c-61 -48 -86
-117 -268 -738 -74 -253 -151 -514 -170 -580 -20 -66 -40 -137 -46 -157 -9
-38 -20 -47 -32 -27 -8 12 -152 126 -166 131 -17 6 -29 78 -35 213 -7 154 -21
213 -68 279 -38 53 -120 126 -143 126 -7 0 -45 -31 -83 -70 -85 -87 -109 -142
-121 -290 -21 -267 -15 -244 -68 -281 -25 -19 -67 -53 -94 -78 -26 -24 -50
-41 -54 -38 -3 4 -23 64 -44 134 -20 71 -54 184 -74 253 -33 113 -71 243 -195
670 -46 161 -104 328 -132 385 -11 22 -34 52 -51 66 l-31 27 42 21 c52 27 145
51 194 51 l37 0 21 -72 c44 -150 102 -346 125 -418 13 -41 45 -147 70 -235
125 -425 129 -436 160 -404 14 14 13 23 -9 95 -13 43 -72 241 -131 439 -59
198 -124 416 -145 485 l-38 125 21 23 c12 13 49 36 83 53 48 24 71 30 110 27
l49 -3 61 -250 c34 -137 80 -331 104 -430 56 -240 58 -245 81 -245 11 0 22 6
25 14 3 7 -8 69 -25 137 -39 160 -104 434 -137 574 -15 61 -32 135 -40 165
l-13 55 72 73 c46 47 92 82 127 98 30 14 66 32 80 39 21 11 29 12 45 1 11 -7
38 -19 60 -26z m-23 -1287 c122 -125 120 -288 -5 -411 -44 -44 -45 -44 -71
-27 -35 23 -103 127 -117 178 -14 53 -6 124 20 175 20 39 103 132 119 132 4 0
29 -21 54 -47z m-2238 -75 c-11 -179 17 -356 76 -479 72 -151 183 -229 336
-237 149 -8 278 34 460 148 92 58 161 90 192 90 21 0 63 -67 87 -139 26 -80
16 -256 -25 -426 -37 -152 -50 -352 -31 -446 33 -160 171 -345 342 -461 27
-18 47 -37 45 -43 -1 -5 -31 -15 -67 -22 -35 -7 -152 -42 -259 -77 -235 -78
-312 -95 -410 -92 -94 3 -168 34 -240 102 -48 45 -97 111 -88 119 2 2 21 0 43
-5 22 -5 87 -12 145 -16 84 -5 109 -3 124 9 11 8 17 21 13 29 -4 12 -31 16
-129 20 -191 7 -296 53 -380 167 -39 52 -72 111 -65 117 2 2 28 -4 58 -15 64
-22 160 -38 279 -47 72 -5 88 -3 99 10 25 30 -2 43 -108 49 -249 17 -403 81
-455 191 -15 31 -23 146 -11 146 3 0 31 -13 63 -29 70 -35 241 -79 340 -88
l72 -6 0 27 c0 14 -2 26 -5 26 -22 0 -210 33 -250 43 -116 32 -218 89 -265
150 -44 56 -70 197 -36 197 8 0 18 -5 21 -10 10 -17 95 -56 169 -79 89 -28
256 -40 273 -20 24 29 -2 42 -103 50 -485 41 -608 401 -357 1052 21 53 41 97
45 97 4 0 5 -46 2 -102z m4426 -23 c52 -139 96 -314 111 -438 21 -184 -20
-345 -115 -441 -86 -88 -239 -146 -385 -146 -63 0 -98 -17 -88 -44 5 -12 20
-16 64 -16 123 0 286 43 367 96 31 21 40 23 48 12 11 -16 1 -90 -19 -140 -37
-93 -183 -175 -373 -210 -181 -33 -175 -31 -175 -53 0 -18 6 -20 70 -18 86 2
289 52 352 87 25 15 49 26 54 26 14 0 10 -97 -5 -134 -49 -118 -204 -185 -473
-204 -85 -6 -98 -10 -101 -26 -2 -10 2 -23 10 -28 29 -19 291 13 391 48 22 8
42 12 44 10 9 -9 -79 -136 -121 -174 -83 -77 -156 -101 -326 -110 -119 -7
-125 -8 -128 -29 -3 -18 3 -23 33 -29 40 -7 189 2 250 16 22 5 41 7 43 5 8 -8
-71 -106 -112 -139 -63 -52 -129 -76 -215 -81 -100 -4 -189 16 -436 98 -110
36 -224 69 -253 73 -29 4 -55 10 -57 14 -3 4 26 30 63 58 153 114 263 250 310
386 18 51 26 100 29 176 5 97 2 124 -41 332 -51 250 -56 325 -27 417 26 82 67
151 91 151 30 0 117 -42 198 -94 94 -61 208 -113 291 -132 90 -22 230 -15 293
13 57 26 129 91 175 158 75 112 120 343 106 549 -7 114 2 107 57 -39z m-2351
-332 c17 -23 49 -56 70 -72 l39 -31 48 39 c27 22 58 53 69 70 11 17 25 31 30
31 6 0 16 -44 22 -97 23 -186 91 -401 162 -510 77 -120 162 -181 263 -190 75
-7 135 15 182 67 50 55 59 98 40 180 -44 184 -4 323 110 376 44 20 106 32 106
20 0 -2 -14 -33 -31 -70 -56 -119 -55 -262 1 -506 40 -174 51 -353 26 -450 -9
-35 -33 -94 -53 -130 -45 -81 -199 -236 -303 -306 -71 -48 -80 -51 -158 -57
-105 -8 -190 -31 -266 -70 -34 -18 -64 -33 -67 -35 -4 -1 -6 33 -6 76 1 68 -4
87 -32 148 -29 62 -121 174 -143 174 -15 0 -99 -83 -129 -126 -40 -59 -61
-145 -53 -217 l6 -58 -68 35 c-83 42 -166 64 -271 73 -88 7 -121 24 -255 132
-144 115 -234 248 -263 386 -25 120 -18 197 49 512 42 197 31 346 -34 451 -11
18 -20 35 -20 37 0 11 63 4 98 -11 120 -50 164 -177 127 -363 -23 -110 -13
-153 45 -211 46 -46 103 -64 176 -57 136 14 250 134 332 350 34 90 91 341 92
404 0 38 10 67 20 56 3 -4 21 -27 39 -50z m-139 -162 c0 -5 -16 -64 -35 -130
-54 -189 -125 -313 -214 -372 -64 -42 -74 -39 -65 19 23 157 89 287 205 405
81 81 109 101 109 78z m596 -69 c83 -82 130 -152 171 -252 23 -58 56 -200 48
-209 -11 -11 -62 15 -102 52 -61 55 -115 140 -153 239 -27 69 -69 216 -70 241
0 23 36 -2 106 -71z m-306 -1229 c53 -59 74 -118 74 -198 0 -78 -26 -141 -85
-205 l-32 -34 -36 41 c-87 97 -114 218 -71 308 25 51 87 125 105 125 7 0 28
-17 45 -37z m-321 -399 c47 -14 123 -43 168 -64 l83 -39 0 -150 c0 -83 -1
-151 -3 -151 -1 0 -38 11 -82 25 -224 71 -485 73 -805 6 -187 -40 -380 -62
-380 -45 0 43 45 301 54 306 6 4 29 8 51 8 53 1 175 28 362 79 84 23 180 46
215 51 96 13 239 2 337 -26z m1092 -21 c223 -59 333 -83 386 -83 23 0 45 -4
48 -10 3 -5 15 -63 26 -127 10 -65 21 -133 24 -150 6 -33 6 -33 -36 -33 -55 0
-232 26 -344 51 -327 73 -634 63 -871 -28 -12 -4 -14 21 -14 146 l0 151 68 34
c77 39 213 83 292 96 106 17 234 3 421 -47z m-1076 -378 c44 -9 121 -30 172
-47 l91 -30 74 25 c186 65 396 90 563 68 50 -7 187 -30 305 -52 118 -21 249
-42 290 -47 l75 -7 0 -30 0 -30 -71 3 c-39 2 -118 12 -175 23 -57 10 -169 31
-249 45 -117 22 -176 27 -310 27 -183 1 -287 -15 -423 -63 l-79 -28 -86 29
c-141 48 -240 63 -407 63 -158 0 -218 -7 -460 -54 -127 -25 -296 -50 -342 -50
-8 0 -13 14 -13 35 0 34 1 35 38 35 46 0 166 19 382 59 91 17 194 35 230 40
90 14 299 6 395 -14z"/>
<path d="M2474 2552 c-7 -4 -15 -34 -19 -67 -18 -147 -85 -299 -203 -458 -111
-149 -125 -178 -130 -266 -3 -61 0 -87 18 -134 28 -75 133 -233 159 -240 12
-3 48 8 83 25 82 40 136 41 204 4 71 -39 99 -33 147 29 21 28 57 88 80 134 38
77 42 91 42 160 0 95 -23 146 -130 287 -117 153 -181 299 -201 454 -9 70 -22
90 -50 72z m41 -277 c27 -77 81 -170 168 -289 43 -59 87 -127 98 -150 38 -83
19 -185 -54 -296 -67 -101 -56 -96 -131 -66 -84 34 -142 34 -218 -1 l-60 -27
-29 35 c-42 50 -107 182 -114 233 -10 61 14 127 76 212 27 38 70 99 96 137 25
37 49 67 52 67 3 0 25 -64 49 -143 48 -162 52 -223 21 -307 -28 -75 -29 -105
-5 -105 26 0 51 44 72 125 22 86 14 159 -30 291 -19 57 -40 134 -47 171 -11
60 -10 74 6 123 11 30 22 52 25 47 4 -4 15 -29 25 -57z"/>
</g>
</svg>
