<?xml version="1.0" standalone="no"?>
<!DOCTYPE svg PUBLIC "-//W3C//DTD SVG 20010904//EN"
 "http://www.w3.org/TR/2001/REC-SVG-20010904/DTD/svg10.dtd">
<svg version="1.0" xmlns="http://www.w3.org/2000/svg"
 width="250.000000pt" height="500.000000pt" viewBox="0 0 250.000000 500.000000"
 preserveAspectRatio="xMidYMid meet">

<g transform="translate(0.000000,500.000000) scale(0.100000,-0.100000)"
fill="#000000" stroke="none">
<path d="M2470 4807 c0 -27 -58 -79 -130 -116 l-75 -38 1 -59 c1 -32 7 -129
14 -214 6 -85 15 -209 20 -275 5 -66 12 -150 15 -186 l8 -67 -32 -7 c-52 -11
-58 3 -60 122 -1 59 -4 110 -7 115 -3 4 -12 115 -21 245 -8 131 -17 262 -20
291 -5 49 -14 64 -28 43 -3 -5 -42 -35 -88 -67 -126 -89 -151 -125 -136 -195
6 -24 15 -66 20 -94 6 -27 14 -70 19 -95 5 -25 14 -70 19 -100 5 -30 17 -86
26 -125 9 -38 21 -90 25 -115 23 -121 40 -208 46 -232 5 -23 2 -29 -20 -38
-37 -14 -53 -4 -60 38 -3 20 -10 57 -16 82 -6 25 -15 68 -21 95 -5 28 -16 84
-24 125 -9 41 -18 89 -21 105 -3 17 -9 46 -14 65 -5 19 -16 76 -26 126 -14 78
-20 94 -40 105 -32 17 -170 17 -214 0 -51 -19 -143 -64 -160 -78 -8 -6 -26
-21 -40 -32 l-25 -20 58 -1 c66 0 132 -27 169 -68 27 -31 67 -119 80 -177 12
-57 38 -182 48 -235 5 -25 14 -67 20 -95 6 -27 18 -86 26 -130 16 -87 28 -145
43 -215 5 -25 15 -76 21 -115 7 -38 16 -78 21 -87 5 -10 9 -33 9 -52 0 -19 5
-38 10 -41 6 -3 10 -23 10 -43 0 -20 7 -62 15 -92 8 -30 15 -69 15 -86 0 -44
8 -46 43 -12 63 60 189 138 224 138 7 0 13 9 13 20 0 11 5 39 12 64 10 39 9
48 -12 92 -34 71 -34 208 0 279 13 28 28 52 32 53 4 2 8 9 8 15 0 7 11 24 25
39 14 15 25 31 26 35 0 4 18 33 39 63 21 30 53 83 71 117 17 34 40 65 50 68
18 6 19 27 19 541 0 468 -2 534 -15 534 -8 0 -15 -6 -15 -13z"/>
<path d="M2459 3533 c-13 -21 -42 -63 -64 -93 -108 -145 -123 -239 -59 -361
20 -38 39 -69 43 -69 4 0 15 -16 25 -35 11 -19 23 -35 28 -35 4 0 8 -5 8 -10
0 -14 42 -70 52 -70 4 0 8 160 8 355 0 209 -4 355 -9 355 -5 0 -20 -17 -32
-37z"/>
<path d="M406 3308 c-49 -118 -121 -251 -153 -286 -22 -23 -123 -179 -123
-190 0 -6 -3 -12 -7 -14 -10 -4 -56 -100 -71 -149 -27 -82 0 -200 63 -273 52
-60 110 -76 315 -85 l135 -6 3 -38 3 -38 -143 5 c-156 5 -228 13 -242 27 -20
19 -26 7 -26 -53 0 -113 58 -193 160 -221 62 -16 183 -26 265 -20 90 6 109 -3
103 -54 l-3 -28 -120 1 c-135 1 -244 12 -262 27 -10 7 -13 -9 -13 -74 0 -107
4 -119 44 -146 48 -31 130 -46 295 -52 l145 -6 7 -28 c13 -50 -9 -60 -130 -53
-58 3 -134 8 -168 12 -35 3 -63 3 -63 -1 0 -4 7 -32 16 -63 12 -42 28 -68 60
-99 25 -24 52 -43 62 -43 10 0 22 -4 27 -9 17 -16 154 -33 295 -38 140 -4 150
-8 150 -50 0 -36 -33 -46 -134 -39 -152 9 -220 18 -233 28 -8 6 -13 6 -13 1 0
-17 95 -125 125 -142 17 -9 32 -19 35 -22 3 -3 30 -14 60 -24 30 -10 64 -21
75 -25 82 -31 119 -35 315 -35 192 0 279 9 345 35 11 4 47 16 80 25 33 9 89
31 125 48 53 26 61 32 40 34 -49 6 -135 26 -145 35 -5 4 -21 8 -36 8 -15 0
-30 4 -34 9 -3 5 -20 13 -37 17 -30 6 -66 22 -78 34 -3 3 -21 14 -42 24 -74
39 -156 129 -195 214 -14 31 -31 68 -37 81 -15 32 -14 355 1 373 6 7 13 31 16
53 5 43 43 198 57 230 8 19 30 97 51 180 6 22 15 55 20 73 6 17 13 72 16 122
l6 89 -28 11 c-21 8 -26 15 -22 31 8 28 -27 57 -79 65 -50 7 -131 -2 -139 -17
-4 -5 -17 -9 -31 -9 -13 0 -24 -4 -24 -10 0 -5 -8 -10 -17 -10 -20 0 -83 -21
-175 -59 -13 -5 -45 -17 -73 -26 -27 -9 -58 -21 -67 -26 -10 -5 -26 -9 -36 -9
-10 0 -22 -4 -28 -10 -14 -14 -151 -24 -207 -16 -62 9 -113 60 -122 119 -6 41
3 122 25 237 26 134 51 390 38 390 -2 0 -12 -19 -22 -42z"/>
<path d="M2325 2883 c-3 -21 -10 -46 -16 -55 -5 -10 -9 -27 -9 -38 0 -11 -4
-28 -9 -38 -5 -9 -17 -37 -27 -62 -30 -74 -76 -141 -169 -248 -22 -26 -43 -51
-48 -57 -4 -5 -21 -27 -37 -49 -31 -40 -155 -287 -162 -321 -6 -32 -38 -18
-95 41 -83 85 -93 113 -93 248 0 63 5 127 11 143 17 44 17 241 -1 283 -32 76
-76 104 -177 115 -64 6 -77 -1 -47 -26 15 -13 47 -75 58 -114 11 -41 -20 -267
-53 -375 -5 -19 -21 -73 -34 -120 -13 -47 -27 -92 -30 -100 -3 -8 -8 -28 -12
-45 -3 -16 -10 -46 -14 -65 -26 -106 -33 -165 -29 -275 3 -112 6 -124 38 -189
33 -69 105 -156 128 -156 7 0 12 -3 12 -7 0 -5 28 -21 63 -38 34 -16 64 -33
65 -37 2 -5 16 -8 31 -8 15 0 31 -4 37 -10 9 -9 73 -22 174 -36 121 -16 150
-26 157 -53 9 -37 55 -102 93 -131 18 -14 38 -30 45 -36 6 -6 21 -15 33 -18
12 -4 22 -12 22 -17 0 -5 7 -9 15 -9 8 0 30 -9 48 -19 29 -16 144 -41 191 -41
13 0 16 15 16 84 l0 83 -40 7 c-38 6 -64 21 -99 58 -66 69 -77 125 -36 186 21
30 25 49 25 104 0 107 29 152 106 164 38 5 44 10 44 30 0 21 -5 24 -38 24 -26
0 -45 -7 -57 -20 -10 -11 -28 -20 -40 -20 -33 0 -125 50 -164 89 -35 35 -71
121 -71 170 0 24 27 143 39 176 8 20 124 264 142 297 5 10 9 45 9 78 0 68 10
75 46 33 l24 -28 0 29 c0 50 34 128 73 169 42 45 43 47 23 47 -8 0 -21 12 -29
28 -23 44 -67 121 -97 169 l-29 45 -6 -39z"/>
<path d="M2180 2780 c0 -5 -5 -10 -10 -10 -16 0 -90 -51 -137 -94 -40 -37
-113 -145 -113 -167 0 -5 -4 -17 -9 -27 -19 -38 -30 -69 -36 -102 -3 -19 -11
-47 -17 -62 -5 -14 -8 -35 -6 -45 2 -13 10 -4 27 30 12 26 27 47 32 47 5 0 9
5 9 11 0 10 37 63 73 104 96 111 144 178 181 254 28 60 31 71 16 71 -5 0 -10
-4 -10 -10z"/>
<path d="M2462 2427 c-10 -66 -7 -98 19 -152 5 -11 8 -69 7 -130 -3 -94 -5
-110 -20 -113 -14 -3 -17 4 -16 40 1 48 -11 128 -22 143 -3 6 -13 29 -20 53
-17 54 -27 61 -36 25 -4 -15 -10 -30 -13 -33 -12 -9 -111 -218 -111 -234 0 -8
-4 -18 -10 -21 -5 -3 -10 -19 -10 -35 0 -16 -5 -41 -10 -55 -22 -57 27 -154
94 -189 36 -19 39 -19 89 -2 29 10 62 16 72 14 20 -3 20 6 23 342 1 203 -1
353 -7 365 -5 11 -11 27 -13 35 -3 8 -9 -16 -16 -53z"/>
<path d="M2453 1523 c-9 -3 -13 -29 -13 -78 0 -65 -4 -80 -31 -123 -29 -48
-30 -51 -15 -80 17 -34 65 -72 90 -72 14 0 16 22 16 180 0 165 -1 180 -17 179
-10 0 -24 -3 -30 -6z"/>
<path d="M1990 940 c-14 -4 -42 -8 -62 -9 -20 -1 -40 -5 -43 -11 -3 -5 -17
-10 -31 -10 -13 0 -32 -4 -42 -9 -9 -6 -44 -18 -77 -27 -33 -10 -64 -20 -70
-24 -11 -8 -110 -37 -140 -42 -25 -4 -35 -58 -11 -58 8 0 18 5 21 10 3 6 15
10 26 10 10 0 27 4 37 9 9 5 44 17 77 26 33 10 71 22 85 28 80 32 147 48 235
58 77 8 205 -3 251 -22 68 -28 141 -64 177 -87 l37 -25 0 -98 c0 -88 -2 -99
-17 -99 -21 0 -90 23 -99 33 -4 4 -19 7 -34 7 -14 0 -31 5 -38 12 -17 17 -312
23 -382 8 -30 -6 -68 -14 -85 -17 -16 -3 -34 -9 -40 -13 -5 -4 -37 -15 -70
-24 -33 -10 -69 -21 -80 -25 -11 -5 -31 -13 -45 -18 -56 -23 -126 -43 -147
-43 -12 0 -24 -4 -27 -9 -6 -9 -44 -16 -138 -27 -46 -6 -48 -5 -48 19 0 14 4
28 9 32 6 3 13 26 17 50 3 25 10 48 15 51 5 3 9 29 9 58 0 31 5 58 13 64 7 6
37 12 67 13 67 2 120 22 120 45 0 13 -6 15 -32 9 -18 -5 -72 -8 -119 -9 l-87
-1 -5 -85 c-5 -87 -10 -105 -56 -199 -25 -52 -84 -121 -102 -121 -6 0 -6 -7
-1 -17 6 -10 13 -37 17 -61 l7 -43 101 4 c136 6 248 27 309 58 10 5 27 9 38 9
11 0 28 4 38 9 9 5 40 17 67 26 28 9 59 20 70 24 129 51 309 77 429 62 109
-13 199 -31 211 -42 5 -5 18 -9 30 -9 12 0 25 -4 30 -9 6 -5 29 -12 53 -16 40
-6 42 -6 42 19 0 20 -5 26 -21 26 -22 0 -110 26 -141 41 -10 5 -28 9 -41 9
-13 0 -29 6 -35 13 -10 9 -65 12 -207 12 -142 0 -197 -3 -206 -12 -7 -7 -23
-13 -36 -13 -13 0 -31 -4 -41 -9 -9 -5 -44 -17 -77 -27 -57 -17 -73 -23 -113
-43 -10 -5 -37 -12 -60 -16 -23 -4 -44 -11 -48 -16 -3 -5 -18 -9 -34 -9 -16 0
-32 -4 -35 -10 -3 -5 -19 -10 -35 -10 -16 0 -39 -4 -52 -9 -13 -4 -62 -12
-109 -15 l-86 -8 -7 28 c-11 43 23 71 92 77 85 7 205 27 224 38 10 5 26 9 36
9 10 0 22 4 28 8 5 5 38 17 74 27 36 10 69 22 75 27 5 4 19 8 30 8 12 0 25 3
29 7 10 10 118 43 143 43 12 0 24 4 27 8 5 8 140 25 191 24 43 -1 151 -14 175
-22 14 -4 54 -16 90 -26 36 -9 70 -21 75 -25 6 -4 28 -9 50 -11 l40 -3 3 147
3 146 -53 26 c-29 14 -64 32 -78 40 -41 24 -92 46 -107 46 -7 0 -21 4 -31 9
-48 25 -191 37 -242 21z"/>
</g>
</svg>
